<svg version="1.0" xmlns="http://www.w3.org/2000/svg" width="512.000000" height="512.000000" viewBox="0 0 512.000000 512.000000" preserveAspectRatio="xMidYMid meet"><rect x="215" y="23" width="13" height="13" fill="rgb(0,199,224)" /><rect x="227" y="23" width="13" height="13" fill="rgb(0,199,224)" /><rect x="239" y="23" width="13" height="13" fill="rgb(0,199,225)" /><rect x="251" y="23" width="13" height="13" fill="rgb(0,199,225)" /><rect x="263" y="23" width="13" height="13" fill="rgb(0,199,225)" /><rect x="275" y="23" width="13" height="13" fill="rgb(0,199,224)" /><rect x="191" y="35" width="13" height="13" fill="rgb(0,199,224)" /><rect x="203" y="35" width="13" height="13" fill="rgb(0,199,225)" /><rect x="215" y="35" width="13" height="13" fill="rgb(0,199,225)" /><rect x="287" y="35" width="13" height="13" fill="rgb(0,199,224)" /><rect x="299" y="35" width="13" height="13" fill="rgb(0,199,225)" /><rect x="311" y="35" width="13" height="13" fill="rgb(0,199,224)" /><rect x="179" y="47" width="13" height="13" fill="rgb(0,199,225)" /><rect x="311" y="47" width="13" height="13" fill="rgb(0,198,225)" /><rect x="323" y="47" width="13" height="13" fill="rgb(0,199,225)" /><rect x="155" y="59" width="13" height="13" fill="rgb(0,199,225)" /><rect x="167" y="59" width="13" height="13" fill="rgb(0,199,224)" /><rect x="335" y="59" width="13" height="13" fill="rgb(0,199,225)" /><rect x="155" y="71" width="13" height="13" fill="rgb(0,199,224)" /><rect x="239" y="71" width="13" height="13" fill="rgb(0,199,225)" /><rect x="251" y="71" width="13" height="13" fill="rgb(0,199,225)" /><rect x="263" y="71" width="13" height="13" fill="rgb(0,199,225)" /><rect x="347" y="71" width="13" height="13" fill="rgb(0,199,225)" /><rect x="143" y="83" width="13" height="13" fill="rgb(0,199,225)" /><rect x="215" y="83" width="13" height="13" fill="rgb(0,199,225)" /><rect x="227" y="83" width="13" height="13" fill="rgb(0,199,224)" /><rect x="239" y="83" width="13" height="13" fill="rgb(0,199,224)" /><rect x="251" y="83" width="13" height="13" fill="rgb(0,199,225)" /><rect x="263" y="83" width="13" height="13" fill="rgb(0,199,224)" /><rect x="275" y="83" width="13" height="13" fill="rgb(0,199,225)" /><rect x="287" y="83" width="13" height="13" fill="rgb(0,199,225)" /><rect x="359" y="83" width="13" height="13" fill="rgb(0,199,225)" /><rect x="131" y="95" width="13" height="13" fill="rgb(0,199,224)" /><rect x="143" y="95" width="13" height="13" fill="rgb(0,198,225)" /><rect x="191" y="95" width="13" height="13" fill="rgb(0,199,225)" /><rect x="203" y="95" width="13" height="13" fill="rgb(0,199,224)" /><rect x="299" y="95" width="13" height="13" fill="rgb(0,199,225)" /><rect x="359" y="95" width="13" height="13" fill="rgb(0,199,224)" /><rect x="371" y="95" width="13" height="13" fill="rgb(0,199,225)" /><rect x="131" y="107" width="13" height="13" fill="rgb(0,199,225)" /><rect x="191" y="107" width="13" height="13" fill="rgb(0,199,224)" /><rect x="311" y="107" width="13" height="13" fill="rgb(0,199,225)" /><rect x="371" y="107" width="13" height="13" fill="rgb(0,199,225)" /><rect x="131" y="119" width="13" height="13" fill="rgb(0,199,224)" /><rect x="179" y="119" width="13" height="13" fill="rgb(0,199,225)" /><rect x="323" y="119" width="13" height="13" fill="rgb(0,199,224)" /><rect x="371" y="119" width="13" height="13" fill="rgb(0,199,225)" /><rect x="119" y="131" width="13" height="13" fill="rgb(0,199,224)" /><rect x="131" y="131" width="13" height="13" fill="rgb(0,199,224)" /><rect x="179" y="131" width="13" height="13" fill="rgb(0,199,224)" /><rect x="323" y="131" width="13" height="13" fill="rgb(0,199,225)" /><rect x="371" y="131" width="13" height="13" fill="rgb(0,199,224)" /><rect x="119" y="143" width="13" height="13" fill="rgb(0,199,224)" /><rect x="131" y="143" width="13" height="13" fill="rgb(0,197,225)" /><rect x="371" y="143" width="13" height="13" fill="rgb(0,199,224)" /><rect x="383" y="143" width="13" height="13" fill="rgb(0,199,225)" /><rect x="119" y="155" width="13" height="13" fill="rgb(0,199,224)" /><rect x="131" y="155" width="13" height="13" fill="rgb(0,197,225)" /><rect x="371" y="155" width="13" height="13" fill="rgb(0,199,224)" /><rect x="383" y="155" width="13" height="13" fill="rgb(0,199,225)" /><rect x="119" y="167" width="13" height="13" fill="rgb(0,199,224)" /><rect x="131" y="167" width="13" height="13" fill="rgb(0,199,224)" /><rect x="371" y="167" width="13" height="13" fill="rgb(0,199,224)" /><rect x="131" y="179" width="13" height="13" fill="rgb(0,199,224)" /><rect x="191" y="179" width="13" height="13" fill="rgb(0,198,225)" /><rect x="203" y="179" width="13" height="13" fill="rgb(0,199,225)" /><rect x="215" y="179" width="13" height="13" fill="rgb(0,199,225)" /><rect x="227" y="179" width="13" height="13" fill="rgb(0,199,225)" /><rect x="239" y="179" width="13" height="13" fill="rgb(0,199,225)" /><rect x="251" y="179" width="13" height="13" fill="rgb(0,199,225)" /><rect x="263" y="179" width="13" height="13" fill="rgb(0,199,225)" /><rect x="275" y="179" width="13" height="13" fill="rgb(0,199,225)" /><rect x="287" y="179" width="13" height="13" fill="rgb(0,199,225)" /><rect x="299" y="179" width="13" height="13" fill="rgb(0,199,225)" /><rect x="311" y="179" width="13" height="13" fill="rgb(0,199,225)" /><rect x="371" y="179" width="13" height="13" fill="rgb(0,199,225)" /><rect x="131" y="191" width="13" height="13" fill="rgb(0,199,225)" /><rect x="191" y="191" width="13" height="13" fill="rgb(0,199,225)" /><rect x="203" y="191" width="13" height="13" fill="rgb(0,199,225)" /><rect x="215" y="191" width="13" height="13" fill="rgb(0,199,225)" /><rect x="227" y="191" width="13" height="13" fill="rgb(0,199,225)" /><rect x="239" y="191" width="13" height="13" fill="rgb(0,199,225)" /><rect x="251" y="191" width="13" height="13" fill="rgb(0,199,225)" /><rect x="263" y="191" width="13" height="13" fill="rgb(0,199,225)" /><rect x="275" y="191" width="13" height="13" fill="rgb(0,199,225)" /><rect x="287" y="191" width="13" height="13" fill="rgb(0,199,225)" /><rect x="299" y="191" width="13" height="13" fill="rgb(0,199,225)" /><rect x="311" y="191" width="13" height="13" fill="rgb(0,199,225)" /><rect x="323" y="191" width="13" height="13" fill="rgb(0,199,224)" /><rect x="371" y="191" width="13" height="13" fill="rgb(0,199,225)" /><rect x="131" y="203" width="13" height="13" fill="rgb(0,199,224)" /><rect x="191" y="203" width="13" height="13" fill="rgb(0,199,225)" /><rect x="203" y="203" width="13" height="13" fill="rgb(0,199,225)" /><rect x="215" y="203" width="13" height="13" fill="rgb(0,199,225)" /><rect x="227" y="203" width="13" height="13" fill="rgb(0,199,225)" /><rect x="239" y="203" width="13" height="13" fill="rgb(0,199,225)" /><rect x="251" y="203" width="13" height="13" fill="rgb(0,199,225)" /><rect x="263" y="203" width="13" height="13" fill="rgb(0,199,225)" /><rect x="275" y="203" width="13" height="13" fill="rgb(0,199,225)" /><rect x="287" y="203" width="13" height="13" fill="rgb(0,199,225)" /><rect x="299" y="203" width="13" height="13" fill="rgb(0,199,225)" /><rect x="311" y="203" width="13" height="13" fill="rgb(0,199,225)" /><rect x="323" y="203" width="13" height="13" fill="rgb(0,199,224)" /><rect x="359" y="203" width="13" height="13" fill="rgb(0,199,225)" /><rect x="371" y="203" width="13" height="13" fill="rgb(0,198,225)" /><rect x="143" y="215" width="13" height="13" fill="rgb(0,199,225)" /><rect x="191" y="215" width="13" height="13" fill="rgb(0,199,225)" /><rect x="203" y="215" width="13" height="13" fill="rgb(0,199,225)" /><rect x="215" y="215" width="13" height="13" fill="rgb(0,199,225)" /><rect x="227" y="215" width="13" height="13" fill="rgb(0,199,225)" /><rect x="239" y="215" width="13" height="13" fill="rgb(0,199,225)" /><rect x="251" y="215" width="13" height="13" fill="rgb(0,199,225)" /><rect x="263" y="215" width="13" height="13" fill="rgb(0,199,225)" /><rect x="275" y="215" width="13" height="13" fill="rgb(0,199,225)" /><rect x="287" y="215" width="13" height="13" fill="rgb(0,199,225)" /><rect x="299" y="215" width="13" height="13" fill="rgb(0,199,225)" /><rect x="311" y="215" width="13" height="13" fill="rgb(0,199,225)" /><rect x="323" y="215" width="13" height="13" fill="rgb(0,199,224)" /><rect x="359" y="215" width="13" height="13" fill="rgb(0,199,225)" /><rect x="191" y="227" width="13" height="13" fill="rgb(0,199,225)" /><rect x="203" y="227" width="13" height="13" fill="rgb(0,199,225)" /><rect x="215" y="227" width="13" height="13" fill="rgb(0,199,225)" /><rect x="227" y="227" width="13" height="13" fill="rgb(0,199,225)" /><rect x="239" y="227" width="13" height="13" fill="rgb(0,199,225)" /><rect x="251" y="227" width="13" height="13" fill="rgb(0,199,225)" /><rect x="263" y="227" width="13" height="13" fill="rgb(0,199,225)" /><rect x="275" y="227" width="13" height="13" fill="rgb(0,199,225)" /><rect x="287" y="227" width="13" height="13" fill="rgb(0,199,225)" /><rect x="299" y="227" width="13" height="13" fill="rgb(0,199,225)" /><rect x="311" y="227" width="13" height="13" fill="rgb(0,199,225)" /><rect x="215" y="239" width="13" height="13" fill="rgb(0,199,224)" /><rect x="227" y="239" width="13" height="13" fill="rgb(0,199,225)" /><rect x="239" y="239" width="13" height="13" fill="rgb(0,199,225)" /><rect x="251" y="239" width="13" height="13" fill="rgb(0,199,225)" /><rect x="263" y="239" width="13" height="13" fill="rgb(0,199,225)" /><rect x="275" y="239" width="13" height="13" fill="rgb(0,199,225)" /><rect x="287" y="239" width="13" height="13" fill="rgb(0,199,225)" /><rect x="215" y="251" width="13" height="13" fill="rgb(0,199,225)" /><rect x="227" y="251" width="13" height="13" fill="rgb(0,199,225)" /><rect x="239" y="251" width="13" height="13" fill="rgb(0,199,225)" /><rect x="251" y="251" width="13" height="13" fill="rgb(0,199,225)" /><rect x="263" y="251" width="13" height="13" fill="rgb(0,199,225)" /><rect x="275" y="251" width="13" height="13" fill="rgb(0,199,225)" /><rect x="287" y="251" width="13" height="13" fill="rgb(0,199,225)" /><rect x="215" y="263" width="13" height="13" fill="rgb(0,199,225)" /><rect x="227" y="263" width="13" height="13" fill="rgb(0,199,225)" /><rect x="239" y="263" width="13" height="13" fill="rgb(0,199,225)" /><rect x="251" y="263" width="13" height="13" fill="rgb(0,199,225)" /><rect x="263" y="263" width="13" height="13" fill="rgb(0,199,225)" /><rect x="275" y="263" width="13" height="13" fill="rgb(0,199,225)" /><rect x="287" y="263" width="13" height="13" fill="rgb(0,199,225)" /><rect x="227" y="275" width="13" height="13" fill="rgb(0,199,225)" /><rect x="239" y="275" width="13" height="13" fill="rgb(0,199,225)" /><rect x="251" y="275" width="13" height="13" fill="rgb(0,199,225)" /><rect x="263" y="275" width="13" height="13" fill="rgb(0,199,225)" /><rect x="275" y="275" width="13" height="13" fill="rgb(0,199,225)" /><rect x="287" y="275" width="13" height="13" fill="rgb(0,199,224)" /><rect x="59" y="335" width="13" height="13" fill="rgb(0,199,225)" /><rect x="71" y="335" width="13" height="13" fill="rgb(0,199,225)" /><rect x="83" y="335" width="13" height="13" fill="rgb(0,199,225)" /><rect x="95" y="335" width="13" height="13" fill="rgb(0,199,225)" /><rect x="107" y="335" width="13" height="13" fill="rgb(0,199,225)" /><rect x="119" y="335" width="13" height="13" fill="rgb(0,199,225)" /><rect x="215" y="335" width="13" height="13" fill="rgb(0,199,224)" /><rect x="227" y="335" width="13" height="13" fill="rgb(0,199,225)" /><rect x="239" y="335" width="13" height="13" fill="rgb(0,199,225)" /><rect x="251" y="335" width="13" height="13" fill="rgb(0,199,225)" /><rect x="263" y="335" width="13" height="13" fill="rgb(0,199,225)" /><rect x="323" y="335" width="13" height="13" fill="rgb(0,199,225)" /><rect x="335" y="335" width="13" height="13" fill="rgb(0,199,225)" /><rect x="431" y="335" width="13" height="13" fill="rgb(0,199,225)" /><rect x="59" y="347" width="13" height="13" fill="rgb(0,199,225)" /><rect x="131" y="347" width="13" height="13" fill="rgb(0,199,224)" /><rect x="203" y="347" width="13" height="13" fill="rgb(0,199,225)" /><rect x="275" y="347" width="13" height="13" fill="rgb(0,199,225)" /><rect x="323" y="347" width="13" height="13" fill="rgb(0,199,225)" /><rect x="335" y="347" width="13" height="13" fill="rgb(0,199,224)" /><rect x="419" y="347" width="13" height="13" fill="rgb(0,198,225)" /><rect x="431" y="347" width="13" height="13" fill="rgb(0,199,224)" /><rect x="59" y="359" width="13" height="13" fill="rgb(0,199,225)" /><rect x="143" y="359" width="13" height="13" fill="rgb(0,199,225)" /><rect x="191" y="359" width="13" height="13" fill="rgb(0,199,225)" /><rect x="323" y="359" width="13" height="13" fill="rgb(0,199,225)" /><rect x="419" y="359" width="13" height="13" fill="rgb(0,199,225)" /><rect x="59" y="371" width="13" height="13" fill="rgb(0,199,225)" /><rect x="143" y="371" width="13" height="13" fill="rgb(0,199,225)" /><rect x="155" y="371" width="13" height="13" fill="rgb(0,198,225)" /><rect x="191" y="371" width="13" height="13" fill="rgb(0,199,225)" /><rect x="323" y="371" width="13" height="13" fill="rgb(0,199,225)" /><rect x="347" y="371" width="13" height="13" fill="rgb(0,199,224)" /><rect x="59" y="383" width="13" height="13" fill="rgb(0,199,225)" /><rect x="155" y="383" width="13" height="13" fill="rgb(0,199,224)" /><rect x="191" y="383" width="13" height="13" fill="rgb(0,199,225)" /><rect x="323" y="383" width="13" height="13" fill="rgb(0,199,225)" /><rect x="407" y="383" width="13" height="13" fill="rgb(0,199,224)" /><rect x="59" y="395" width="13" height="13" fill="rgb(0,199,225)" /><rect x="155" y="395" width="13" height="13" fill="rgb(0,199,225)" /><rect x="191" y="395" width="13" height="13" fill="rgb(0,199,225)" /><rect x="323" y="395" width="13" height="13" fill="rgb(0,199,225)" /><rect x="359" y="395" width="13" height="13" fill="rgb(0,199,225)" /><rect x="59" y="407" width="13" height="13" fill="rgb(0,199,225)" /><rect x="155" y="407" width="13" height="13" fill="rgb(0,199,224)" /><rect x="191" y="407" width="13" height="13" fill="rgb(0,199,225)" /><rect x="323" y="407" width="13" height="13" fill="rgb(0,199,225)" /><rect x="59" y="419" width="13" height="13" fill="rgb(0,199,225)" /><rect x="143" y="419" width="13" height="13" fill="rgb(0,199,225)" /><rect x="191" y="419" width="13" height="13" fill="rgb(0,199,224)" /><rect x="287" y="419" width="13" height="13" fill="rgb(0,199,224)" /><rect x="323" y="419" width="13" height="13" fill="rgb(0,199,225)" /><rect x="395" y="419" width="13" height="13" fill="rgb(0,199,225)" /><rect x="59" y="431" width="13" height="13" fill="rgb(0,199,225)" /><rect x="143" y="431" width="13" height="13" fill="rgb(0,199,225)" /><rect x="203" y="431" width="13" height="13" fill="rgb(0,199,224)" /><rect x="287" y="431" width="13" height="13" fill="rgb(0,198,225)" /><rect x="323" y="431" width="13" height="13" fill="rgb(0,199,225)" /><rect x="371" y="431" width="13" height="13" fill="rgb(0,199,224)" /><rect x="383" y="431" width="13" height="13" fill="rgb(0,199,225)" /><rect x="59" y="443" width="13" height="13" fill="rgb(0,199,225)" /><rect x="119" y="443" width="13" height="13" fill="rgb(0,199,224)" /><rect x="131" y="443" width="13" height="13" fill="rgb(0,199,224)" /><rect x="215" y="443" width="13" height="13" fill="rgb(0,199,225)" /><rect x="263" y="443" width="13" height="13" fill="rgb(0,199,224)" /><rect x="275" y="443" width="13" height="13" fill="rgb(0,199,225)" /><rect x="323" y="443" width="13" height="13" fill="rgb(0,199,225)" /><rect x="383" y="443" width="13" height="13" fill="rgb(0,199,225)" /><g transform="translate(0.000000,512.000000) scale(0.100000,-0.100000)" fill="#00CCE5" stroke="none"><path d="M2390 4940 c11 -7 -4 -10 -50 -10 -41 0 -72 -6 -84 -15 -11 -8 -37 -15 -57 -15 -21 0 -41 -4 -44 -10 -3 -5 -19 -10 -35 -10 -16 0 -35 -7 -44 -15 -8 -8 -26 -15 -40 -15 -14 0 -26 -4 -26 -10 0 -5 -9 -10 -19 -10 -11 0 -26 -7 -35 -15 -8 -8 -23 -15 -34 -15 -11 0 -22 -7 -26 -15 -3 -8 -14 -15 -25 -15 -11 0 -21 -3 -23 -7 -3 -9 -95 -73 -103 -73 -3 0 -13 -8 -23 -17 -10 -10 -33 -29 -51 -43 -42 -31 -221 -211 -221 -223 0 -4 -11 -20 -25 -35 -14 -15 -25 -31 -25 -37 0 -6 -11 -22 -25 -37 -14 -15 -25 -36 -25 -46 0 -11 -7 -22 -15 -26 -8 -3 -15 -12 -15 -19 0 -8 -11 -35 -25 -61 -14 -26 -25 -53 -25 -60 0 -8 -6 -19 -14 -25 -8 -7 -17 -30 -21 -52 -4 -21 -11 -39 -16 -39 -5 0 -9 -16 -9 -35 0 -20 -8 -48 -17 -62 -16 -24 -18 -57 -18 -308 0 -247 2 -284 18 -314 9 -19 17 -44 17 -56 0 -13 7 -36 15 -51 8 -16 15 -39 15 -51 0 -13 4 -23 10 -23 5 0 13 -12 16 -26 4 -14 17 -46 30 -71 13 -24 24 -50 24 -58 0 -8 6 -18 13 -22 7 -4 21 -26 32 -48 10 -22 34 -56 53 -75 32 -32 40 -35 93 -35 55 1 61 3 93 38 46 51 55 106 24 164 -13 24 -26 43 -30 43 -5 0 -8 9 -8 19 0 11 -4 23 -10 26 -10 6 -34 56 -45 93 -3 12 -11 22 -16 22 -5 0 -9 14 -9 30 0 17 -4 30 -9 30 -4 0 -11 21 -14 46 -2 26 -9 49 -15 53 -5 3 -12 35 -15 71 -3 36 -10 96 -16 133 -8 51 -8 85 0 130 7 34 14 91 16 127 3 36 9 68 15 71 5 3 12 25 15 48 3 22 10 41 14 41 5 0 9 15 9 34 0 21 6 36 15 40 8 3 15 17 15 31 0 14 5 25 10 25 6 0 10 9 10 20 0 11 4 20 9 20 5 0 13 10 17 22 6 19 23 46 82 127 19 26 165 174 204 206 13 11 41 29 61 40 20 11 37 23 37 27 0 5 8 8 19 8 10 0 24 7 31 15 7 8 21 15 31 15 11 0 19 4 19 10 0 5 12 13 28 16 15 4 36 13 47 20 11 8 29 14 42 14 12 0 25 5 28 10 3 6 20 10 36 10 16 0 40 6 52 14 19 12 160 27 257 28 76 1 238 -16 255 -27 11 -7 36 -15 55 -18 62 -9 115 -26 118 -36 2 -6 8 -11 14 -11 11 0 75 -27 98 -41 8 -5 23 -12 33 -15 9 -4 17 -10 17 -14 0 -4 8 -10 18 -14 24 -8 56 -29 65 -43 4 -7 12 -13 17 -13 14 0 130 -104 130 -115 0 -3 18 -23 40 -45 22 -22 40 -44 40 -50 0 -5 3 -10 8 -10 4 0 16 -17 27 -37 11 -21 26 -44 32 -51 7 -7 13 -20 13 -28 0 -8 4 -14 8 -14 9 0 42 -69 42 -87 0 -6 7 -16 15 -23 8 -7 15 -25 15 -40 0 -15 7 -33 15 -40 9 -7 15 -29 15 -51 0 -21 4 -40 9 -43 14 -9 22 -283 11 -386 -15 -149 -21 -183 -36 -198 -8 -7 -14 -26 -14 -41 0 -16 -7 -34 -15 -41 -8 -7 -15 -21 -15 -31 0 -10 -4 -21 -10 -24 -5 -3 -10 -14 -10 -23 0 -10 -9 -25 -20 -35 -11 -9 -20 -24 -20 -32 0 -8 -4 -15 -10 -15 -5 0 -10 -5 -10 -11 0 -6 -7 -17 -15 -25 -10 -10 -15 -35 -15 -68 0 -43 5 -58 28 -84 16 -18 34 -32 40 -32 5 0 12 -5 14 -12 6 -18 104 -14 123 6 9 9 20 16 23 16 4 0 16 16 27 36 10 19 27 45 37 56 10 12 18 27 18 35 0 7 5 13 10 13 6 0 10 8 10 19 0 10 7 24 15 31 8 7 15 23 15 36 0 13 5 24 10 24 6 0 10 10 10 23 0 12 7 31 15 41 8 11 15 32 15 47 0 14 6 32 14 38 14 12 22 51 32 161 3 30 9 64 15 75 13 26 5 295 -10 385 -7 36 -14 84 -17 107 -3 23 -12 47 -20 54 -8 6 -14 26 -14 43 0 17 -7 40 -15 50 -8 11 -15 30 -15 43 0 13 -4 23 -10 23 -5 0 -10 11 -10 25 0 14 -7 28 -15 31 -8 4 -15 13 -15 20 0 13 -26 61 -40 74 -8 8 -29 43 -39 65 -5 11 -19 31 -32 46 -13 14 -43 50 -66 80 -50 65 -76 93 -133 139 -23 19 -51 43 -61 53 -11 9 -23 17 -28 17 -5 0 -11 6 -14 13 -3 8 -21 22 -41 31 -20 9 -36 21 -36 25 0 5 -11 12 -25 15 -14 4 -25 11 -25 16 0 6 -6 10 -14 10 -7 0 -19 7 -26 15 -7 8 -23 15 -35 15 -13 0 -25 7 -29 15 -3 8 -14 15 -25 15 -11 0 -23 5 -26 10 -3 6 -17 10 -31 10 -14 0 -32 7 -40 15 -9 8 -28 15 -44 15 -16 0 -32 5 -35 10 -3 6 -23 10 -43 10 -20 0 -46 7 -56 15 -13 10 -43 15 -84 15 -39 0 -61 4 -57 10 4 7 -56 10 -172 10 -119 0 -173 -4 -163 -10z"/><path d="M2438 4421 c-42 -3 -83 -12 -90 -18 -6 -7 -29 -13 -49 -13 -20 0 -42 -7 -49 -15 -7 -8 -23 -15 -36 -15 -13 0 -24 -4 -24 -10 0 -5 -11 -10 -25 -10 -14 0 -28 -7 -31 -15 -4 -8 -13 -15 -20 -15 -14 0 -24 -7 -59 -37 -7 -7 -18 -13 -23 -13 -19 0 -190 -177 -228 -235 -21 -33 -43 -63 -49 -67 -5 -4 -6 -8 -1 -8 5 0 2 -8 -7 -18 -9 -10 -20 -33 -23 -50 -4 -18 -10 -32 -15 -32 -5 0 -9 -10 -9 -23 0 -13 -7 -32 -15 -43 -10 -13 -14 -44 -14 -99 0 -69 3 -83 23 -105 26 -29 80 -60 104 -60 62 0 141 83 150 157 2 24 9 43 13 43 5 0 9 10 9 23 0 13 7 32 15 43 8 10 15 27 15 37 0 9 3 17 8 17 4 0 16 16 26 35 22 41 110 135 125 135 6 0 11 5 11 10 0 6 7 10 15 10 9 0 18 7 21 15 4 8 13 15 21 15 8 0 21 7 29 15 9 8 24 15 34 15 10 0 20 7 24 15 3 9 18 15 39 15 19 0 40 7 47 15 18 22 296 21 324 0 11 -8 33 -15 48 -15 16 0 31 -7 34 -15 4 -8 16 -15 29 -15 12 0 28 -7 35 -15 7 -8 18 -15 25 -15 7 0 24 -11 39 -25 15 -14 29 -25 32 -25 18 0 128 -133 152 -182 15 -32 30 -58 34 -58 5 0 8 -13 8 -29 0 -17 4 -32 9 -35 5 -3 12 -26 15 -51 4 -25 11 -45 17 -45 5 0 9 -6 9 -13 0 -15 24 -36 73 -61 34 -18 38 -18 71 -2 19 9 40 16 47 16 7 0 10 3 7 6 -4 3 7 18 23 33 26 25 29 35 29 90 0 42 -5 67 -15 77 -8 9 -15 28 -15 43 0 16 -7 34 -15 41 -8 7 -15 21 -15 31 0 10 -4 21 -10 24 -5 3 -10 14 -10 24 0 10 -7 24 -15 31 -8 7 -15 21 -15 32 0 10 -7 21 -15 24 -8 4 -15 12 -15 20 0 8 -4 14 -9 14 -5 0 -11 6 -13 14 -4 19 -116 135 -171 178 -23 18 -48 38 -55 45 -7 7 -20 13 -28 13 -8 0 -14 5 -14 10 0 6 -9 10 -19 10 -10 0 -21 7 -25 15 -3 8 -14 15 -25 15 -11 0 -23 5 -26 10 -3 6 -17 10 -29 10 -13 0 -29 7 -36 15 -7 8 -26 15 -42 15 -16 0 -39 6 -51 14 -26 17 -223 27 -339 17z"/><path d="M2000 3375 c-7 -8 -19 -15 -26 -15 -8 0 -37 -23 -64 -51 -36 -37 -50 -59 -50 -79 0 -16 -4 -32 -10 -35 -6 -4 -10 -75 -10 -180 0 -105 4 -176 10 -180 6 -3 10 -20 10 -36 0 -17 6 -32 15 -35 8 -4 15 -11 15 -17 0 -16 51 -67 67 -67 7 0 13 -4 13 -10 0 -5 11 -10 24 -10 13 0 29 -7 36 -15 8 -9 30 -15 56 -15 l44 0 0 -143 c0 -110 3 -148 15 -163 8 -10 15 -25 15 -32 0 -7 4 -18 10 -25 37 -46 60 -67 95 -86 38 -20 53 -21 345 -21 289 0 307 1 344 21 48 26 67 44 100 96 25 41 26 48 26 198 l0 155 49 0 c31 0 55 6 65 15 8 8 23 15 34 15 10 0 31 11 46 25 15 14 31 25 37 25 5 0 9 6 9 14 0 8 7 16 15 20 8 3 15 15 15 26 0 12 7 28 15 36 12 13 15 50 15 209 0 159 -3 196 -15 209 -8 8 -15 21 -15 28 0 19 -84 108 -102 108 -9 0 -21 7 -28 15 -11 13 -91 15 -610 15 -519 0 -599 -2 -610 -15z"/><path d="M2370 1843 c-25 -2 -49 -8 -54 -14 -6 -5 -20 -9 -33 -9 -12 0 -47 -11 -77 -25 -30 -14 -59 -25 -63 -25 -5 0 -18 -8 -29 -18 -10 -10 -34 -27 -51 -37 -18 -11 -33 -22 -33 -25 0 -3 -18 -25 -39 -48 -42 -45 -101 -158 -120 -232 -7 -25 -17 -61 -23 -80 -15 -47 -15 -357 1 -373 6 -6 11 -23 11 -39 0 -15 5 -40 11 -55 20 -49 36 -87 49 -120 7 -18 16 -33 21 -33 5 0 9 -5 9 -10 0 -28 115 -138 170 -163 14 -6 27 -15 30 -18 7 -9 97 -39 118 -39 10 0 24 -6 30 -12 17 -17 324 -18 367 -1 17 6 56 19 88 29 31 9 57 20 57 25 0 4 10 11 23 15 36 11 97 69 154 146 29 39 53 75 53 81 0 5 6 23 14 40 46 108 47 117 6 117 -16 0 -30 5 -30 10 0 6 -9 10 -20 10 -26 0 -109 20 -137 33 -30 14 -51 3 -59 -30 -9 -45 -59 -146 -88 -180 -15 -17 -48 -44 -74 -59 -44 -27 -54 -28 -172 -29 -118 0 -128 2 -183 29 -59 30 -111 81 -140 138 -85 171 -78 442 15 605 34 61 110 130 153 139 16 3 36 11 43 17 19 15 199 14 214 -1 7 -7 18 -12 26 -12 16 0 112 -60 112 -70 0 -3 8 -15 18 -26 17 -19 45 -72 56 -106 4 -13 16 -18 41 -18 19 0 35 4 35 9 0 4 26 13 58 19 117 22 127 26 125 53 -4 30 -33 99 -43 99 -5 0 -10 11 -14 23 -5 21 -105 131 -149 165 -36 27 -145 82 -164 82 -10 0 -24 5 -29 10 -11 11 -212 21 -284 13z"/><path d="M543 1833 c-10 -4 -13 -149 -13 -680 l0 -675 368 4 c372 4 377 5 472 45 94 39 96 41 174 120 57 57 74 83 106 158 7 17 16 37 21 46 4 9 11 45 14 80 4 35 11 87 16 115 11 57 -14 341 -32 358 -5 6 -9 20 -9 32 0 13 -4 26 -10 29 -5 3 -10 15 -10 26 0 10 -4 19 -8 19 -4 0 -13 15 -20 33 -15 42 -101 139 -150 168 -20 13 -39 25 -42 28 -6 7 -40 23 -95 44 -104 40 -265 57 -541 56 -126 0 -235 -3 -241 -6z m566 -243 c178 -20 285 -120 323 -302 20 -95 13 -294 -12 -353 -13 -31 -23 -59 -24 -67 -2 -12 -70 -98 -78 -98 -4 0 -16 -8 -27 -19 -10 -10 -45 -26 -77 -36 -33 -9 -69 -21 -82 -26 -13 -5 -98 -9 -190 -9 l-167 0 2 462 c2 255 3 463 3 463 93 0 267 -8 329 -15z"/><path d="M3185 1808 c-3 -7 -4 -310 -3 -673 l3 -660 113 -3 112 -3 1 473 c0 274 4 461 9 445 5 -16 13 -34 18 -40 5 -7 13 -28 17 -47 4 -19 11 -39 14 -45 4 -5 14 -26 21 -45 7 -19 20 -51 28 -70 8 -19 18 -44 22 -55 4 -11 15 -36 24 -57 9 -20 16 -41 16 -47 0 -6 9 -30 19 -54 11 -23 23 -53 27 -67 4 -14 17 -48 30 -77 13 -28 24 -58 24 -67 0 -8 6 -21 13 -28 7 -7 21 -40 31 -73 10 -33 22 -62 25 -65 4 -3 12 -21 17 -40 l10 -35 89 -3 90 -3 23 51 c12 29 22 57 22 63 0 7 12 35 25 62 14 28 25 57 25 66 0 8 4 19 9 25 4 5 16 32 26 59 9 28 21 60 26 73 23 58 28 69 43 104 9 20 16 41 16 47 0 6 4 19 9 29 17 32 41 90 41 99 0 5 9 28 20 51 11 22 20 47 20 54 0 7 8 27 17 43 9 17 23 55 32 86 15 54 16 34 16 -425 l0 -481 113 -3 112 -3 0 676 0 675 -139 0 -139 0 -21 -42 c-11 -24 -27 -63 -36 -88 -43 -116 -52 -137 -68 -169 -9 -18 -19 -48 -23 -67 -3 -19 -10 -34 -14 -34 -4 0 -15 -28 -25 -62 -11 -35 -22 -65 -26 -68 -4 -3 -15 -31 -24 -62 -9 -32 -20 -60 -25 -63 -4 -3 -11 -17 -15 -32 -3 -16 -12 -41 -20 -58 -7 -16 -18 -46 -25 -65 -15 -39 -27 -71 -61 -148 l-23 -54 -12 44 c-6 23 -18 59 -26 78 -9 19 -21 52 -28 72 -6 21 -16 40 -21 43 -5 4 -9 13 -9 21 0 8 -9 34 -19 57 -10 23 -34 80 -51 127 -18 47 -36 90 -40 95 -4 6 -15 36 -25 68 -10 31 -21 57 -25 57 -5 0 -11 18 -15 40 -4 22 -11 42 -16 46 -5 3 -9 14 -9 24 0 10 -3 20 -7 22 -8 3 -24 44 -66 161 l-20 57 -144 0 c-106 0 -145 -3 -148 -12z m222 -380 c-3 -8 -6 -5 -6 6 -1 11 2 17 5 13 3 -3 4 -12 1 -19z"/></g><g transform="translate(0.000000,512.000000) scale(0.100000,-0.100000)" fill="#0085FF" stroke="none"><path d="M2548 4673 c6 -2 18 -2 25 0 6 3 1 5 -13 5 -14 0 -19 -2 -12 -5z"/><path d="M2948 4603 c7 -3 16 -2 19 1 4 3 -2 6 -13 5 -11 0 -14 -3 -6 -6z"/><path d="M2098 4573 c7 -3 16 -2 19 1 4 3 -2 6 -13 5 -11 0 -14 -3 -6 -6z"/><path d="M2045 4279 c-11 -16 -1 -19 13 -3 7 8 8 14 3 14 -5 0 -13 -5 -16 -11z"/><path d="M3772 4256 c7 -8 15 -12 17 -11 5 6 -10 25 -20 25 -5 0 -4 -6 3 -14z"/><path d="M3100 4256 c0 -2 8 -10 18 -17 15 -13 16 -12 3 4 -13 16 -21 21 -21 13z"/><path d="M1291 4164 c0 -11 3 -14 6 -6 3 7 2 16 -1 19 -3 4 -6 -2 -5 -13z"/><path d="M2917 4039 c7 -7 15 -10 18 -7 3 3 -2 9 -12 12 -14 6 -15 5 -6 -5z"/><path d="M1231 4024 c0 -11 3 -14 6 -6 3 7 2 16 -1 19 -3 4 -6 -2 -5 -13z"/><path d="M1520 3990 c-9 -6 -10 -10 -3 -10 6 0 15 5 18 10 8 12 4 12 -15 0z"/><path d="M3590 3981 c0 -5 7 -12 16 -15 14 -5 15 -4 4 9 -14 17 -20 19 -20 6z"/><path d="M3940 3792 l5 -57 3 49 c2 27 0 52 -5 57 -4 4 -6 -18 -3 -49z"/><path d="M1691 3814 c0 -11 3 -14 6 -6 3 7 2 16 -1 19 -3 4 -6 -2 -5 -13z"/><path d="M3461 3664 c0 -11 3 -14 6 -6 3 7 2 16 -1 19 -3 4 -6 -2 -5 -13z"/><path d="M3672 3630 c0 -14 2 -19 5 -12 2 6 2 18 0 25 -3 6 -5 1 -5 -13z"/><path d="M1432 3570 c0 -19 2 -27 5 -17 2 9 2 25 0 35 -3 9 -5 1 -5 -18z"/><path d="M1670 3596 c0 -2 8 -10 18 -17 15 -13 16 -12 3 4 -13 16 -21 21 -21 13z"/><path d="M3345 3530 c-3 -5 -1 -10 4 -10 6 0 11 5 11 10 0 6 -2 10 -4 10 -3 0 -8 -4 -11 -10z"/><path d="M3672 3495 c0 -16 2 -22 5 -12 2 9 2 23 0 30 -3 6 -5 -1 -5 -18z"/><path d="M1452 3440 c0 -14 2 -19 5 -12 2 6 2 18 0 25 -3 6 -5 1 -5 -13z"/><path d="M3945 3398 c-7 -23 -10 -128 -3 -128 3 0 8 32 10 70 3 69 1 82 -7 58z"/><path d="M1231 3104 c0 -11 3 -14 6 -6 3 7 2 16 -1 19 -3 4 -6 -2 -5 -13z"/><path d="M3556 3043 c-6 -14 -5 -15 5 -6 7 7 10 15 7 18 -3 3 -9 -2 -12 -12z"/><path d="M1291 2954 c0 -11 3 -14 6 -6 3 7 2 16 -1 19 -3 4 -6 -2 -5 -13z"/><path d="M1635 2920 c3 -5 8 -10 11 -10 2 0 4 5 4 10 0 6 -5 10 -11 10 -5 0 -7 -4 -4 -10z"/><path d="M1642 2840 c0 -14 2 -19 5 -12 2 6 2 18 0 25 -3 6 -5 1 -5 -13z"/><path d="M1548 2733 c7 -3 16 -2 19 1 4 3 -2 6 -13 5 -11 0 -14 -3 -6 -6z"/><path d="M3578 2733 c7 -3 16 -2 19 1 4 3 -2 6 -13 5 -11 0 -14 -3 -6 -6z"/><path d="M3638 2733 c7 -3 16 -2 19 1 4 3 -2 6 -13 5 -11 0 -14 -3 -6 -6z"/><path d="M3286 2693 c-6 -14 -5 -15 5 -6 7 7 10 15 7 18 -3 3 -9 -2 -12 -12z"/><path d="M1058 1833 c7 -3 16 -2 19 1 4 3 -2 6 -13 5 -11 0 -14 -3 -6 -6z"/><path d="M2102 1235 c0 -16 2 -22 5 -12 2 9 2 23 0 30 -3 6 -5 -1 -5 -18z"/><path d="M2102 1025 c0 -16 2 -22 5 -12 2 9 2 23 0 30 -3 6 -5 -1 -5 -18z"/><path d="M1168 703 c7 -3 16 -2 19 1 4 3 -2 6 -13 5 -11 0 -14 -3 -6 -6z"/><path d="M2949 633 c-13 -16 -12 -17 4 -4 16 13 21 21 13 21 -2 0 -10 -8 -17 -17z"/><path d="M688 473 c79 -2 205 -2 280 0 75 1 11 3 -143 3 -154 0 -216 -2 -137 -3z"/><path d="M2348 453 c7 -3 16 -2 19 1 4 3 -2 6 -13 5 -11 0 -14 -3 -6 -6z"/><path d="M2608 453 c7 -3 16 -2 19 1 4 3 -2 6 -13 5 -11 0 -14 -3 -6 -6z"/></g><g transform="translate(0.000000,512.000000) scale(0.100000,-0.100000)" fill="#00FFFF" stroke="none"><path d="M1800 4740 c0 -5 7 -7 15 -4 8 4 15 8 15 10 0 2 -7 4 -15 4 -8 0 -15 -4 -15 -10z"/><path d="M2918 4603 c7 -3 16 -2 19 1 4 3 -2 6 -13 5 -11 0 -14 -3 -6 -6z"/><path d="M3580 4521 c0 -6 4 -13 10 -16 6 -3 7 1 4 9 -7 18 -14 21 -14 7z"/><path d="M2527 4443 c18 -2 50 -2 70 0 21 2 7 4 -32 4 -38 0 -55 -2 -38 -4z"/><path d="M1262 4105 c0 -16 2 -22 5 -12 2 9 2 23 0 30 -3 6 -5 -1 -5 -18z"/><path d="M3537 4089 c7 -7 15 -10 18 -7 3 3 -2 9 -12 12 -14 6 -15 5 -6 -5z"/><path d="M2278 4083 c6 -2 18 -2 25 0 6 3 1 5 -13 5 -14 0 -19 -2 -12 -5z"/><path d="M2828 4083 c7 -3 16 -2 19 1 4 3 -2 6 -13 5 -11 0 -14 -3 -6 -6z"/><path d="M1751 3974 c0 -11 3 -14 6 -6 3 7 2 16 -1 19 -3 4 -6 -2 -5 -13z"/><path d="M3941 3854 c0 -11 3 -14 6 -6 3 7 2 16 -1 19 -3 4 -6 -2 -5 -13z"/><path d="M3137 3769 c7 -7 15 -10 18 -7 3 3 -2 9 -12 12 -14 6 -15 5 -6 -5z"/><path d="M1971 3744 c0 -11 3 -14 6 -6 3 7 2 16 -1 19 -3 4 -6 -2 -5 -13z"/><path d="M3462 3710 c0 -19 2 -27 5 -17 2 9 2 25 0 35 -3 9 -5 1 -5 -18z"/><path d="M1445 3671 c-3 -5 -1 -12 5 -16 5 -3 10 1 10 9 0 18 -6 21 -15 7z"/><path d="M3458 3627 c-3 -19 -2 -25 4 -19 6 6 8 18 6 28 -3 14 -5 12 -10 -9z"/><path d="M1936 3625 c-3 -8 -1 -15 4 -15 6 0 10 7 10 15 0 8 -2 15 -4 15 -2 0 -6 -7 -10 -15z"/><path d="M3673 3565 c0 -27 2 -38 4 -22 2 15 2 37 0 50 -2 12 -4 0 -4 -28z"/><path d="M1180 3241 c0 -5 7 -12 16 -15 14 -5 15 -4 4 9 -14 17 -20 19 -20 6z"/><path d="M1834 3055 c0 -77 2 -107 3 -67 2 40 2 103 0 140 -2 37 -3 4 -3 -73z"/><path d="M3905 3160 c3 -5 8 -10 11 -10 2 0 4 5 4 10 0 6 -5 10 -11 10 -5 0 -7 -4 -4 -10z"/><path d="M1261 2998 c0 -13 3 -17 6 -10 2 6 10 9 16 5 7 -4 6 1 -2 10 -18 22 -21 21 -20 -5z"/><path d="M1833 2870 c0 -25 2 -35 4 -22 2 12 2 32 0 45 -2 12 -4 2 -4 -23z"/><path d="M1641 2804 c0 -11 3 -14 6 -6 3 7 2 16 -1 19 -3 4 -6 -2 -5 -13z"/><path d="M3480 2800 c0 -5 5 -10 11 -10 5 0 7 5 4 10 -3 6 -8 10 -11 10 -2 0 -4 -4 -4 -10z"/><path d="M2488 1853 c12 -2 30 -2 40 0 9 3 -1 5 -23 4 -22 0 -30 -2 -17 -4z"/><path d="M3056 1433 c-6 -14 -5 -15 5 -6 7 7 10 15 7 18 -3 3 -9 -2 -12 -12z"/><path d="M3018 1413 c7 -3 16 -2 19 1 4 3 -2 6 -13 5 -11 0 -14 -3 -6 -6z"/><path d="M1123 473 c15 -2 37 -2 50 0 12 2 0 4 -28 4 -27 0 -38 -2 -22 -4z"/><path d="M2698 473 c7 -3 16 -2 19 1 4 3 -2 6 -13 5 -11 0 -14 -3 -6 -6z"/></g></svg>